<?xml version="1.0" encoding="UTF-8" standalone="no"?>
<svg
   width="24"
   height="24"
   version="1.1"
   id="svg1"
   sodipodi:docname="steam_tray_mono.svg"
   inkscape:version="1.3.2 (091e20ef0f, 2023-11-25)"
   xmlns:inkscape="http://www.inkscape.org/namespaces/inkscape"
   xmlns:sodipodi="http://sodipodi.sourceforge.net/DTD/sodipodi-0.dtd"
   xmlns="http://www.w3.org/2000/svg"
   xmlns:svg="http://www.w3.org/2000/svg">
  <sodipodi:namedview
     id="namedview1"
     pagecolor="#ffffff"
     bordercolor="#000000"
     borderopacity="1"
     inkscape:showpageshadow="2"
     inkscape:pageopacity="0"
     inkscape:pagecheckerboard="0"
     inkscape:deskcolor="#d1d1d1"
     inkscape:zoom="15.916667"
     inkscape:cx="10.743455"
     inkscape:cy="10.774869"
     inkscape:window-width="1920"
     inkscape:window-height="996"
     inkscape:window-x="0"
     inkscape:window-y="0"
     inkscape:window-maximized="1"
     inkscape:current-layer="svg1" />
  <defs
     id="defs1">
    <style
       id="current-color-scheme"
       type="text/css">
   .ColorScheme-Text { color:#dfdfdf; } .ColorScheme-Highlight { color:#4285f4; } .ColorScheme-NeutralText { color:#ff9800; } .ColorScheme-PositiveText { color:#4caf50; } .ColorScheme-NegativeText { color:#f44336; }
  </style>
  </defs>
  <path
     style="fill:currentColor"
     class="ColorScheme-Text"
     d="m 12.000194,3.9999998 c -4.2971754,0 -7.8032291,3.3881043 -7.9921875,7.6386722 -2.612e-4,0.0059 0.00739,0.02162 0.00977,0.03125 a 8,8 0 0 1 0.00391,-0.0957 l 3.8984291,1.99414 A 2.5,2.5 0 0 1 9.5001936,13 a 2.5,2.5 0 0 1 0.05859,0.002 L 11.00605,10.587941 a 3.5,3.5 0 0 1 -0.0059,-0.08794 3.5,3.5 0 0 1 3.5,-3.5000006 3.5,3.5 0 0 1 3.500001,3.5000006 3.5,3.5 0 0 1 -3.500001,3.5 3.5,3.5 0 0 1 -0.496094,-0.03516 l -2.029296,1.18164 a 2.5,2.5 0 0 1 0.02539,0.353516 2.5,2.5 0 0 1 -2.5000004,2.5 2.5,2.5 0 0 1 -2.4999996,-2.5 2.5,2.5 0 0 1 0.011719,-0.150391 L 4.2443346,13.933594 a 8,8 0 0 1 -0.041016,-0.210938 c 0.00101,0.05524 0.010387,0.118484 0.029297,0.195313 C 5.0920411,17.409691 8.2432323,20 12.000193,20 c 4.418279,0 8.000001,-3.581722 8.000001,-8 0,-4.4182782 -3.581722,-8.0000002 -8,-8.0000002 z m 2.5,4.4999999 a 2,2 0 0 0 -2,2.0000003 2,2 0 0 0 2,2 2,2 0 0 0 2.000001,-2 2,2 0 0 0 -2.000001,-2.0000003 z m 0,0.4999995 a 1.5,1.5 0 0 1 1.5,1.5000008 1.5,1.5 0 0 1 -1.5,1.5 1.5,1.5 0 0 1 -1.5,-1.5 1.5,1.5 0 0 1 1.5,-1.5000008 z M 9.5001936,14 a 1.5000003,1.5000003 0 0 0 -0.539062,0.101562 l 0.994141,0.507813 a 1.0001547,1.0001547 0 1 1 -0.910157,1.78125 L 8.0568346,15.884766 A 1.5000003,1.5000003 0 0 0 9.5001936,17 1.5000003,1.5000003 0 0 0 11.000194,15.5 1.5000003,1.5000003 0 0 0 9.5001936,14 Z"
     id="path1" />
</svg>
