<?xml version="1.0" encoding="UTF-8" standalone="no"?>
<svg
   width="16"
   height="16"
   version="1.1"
   id="svg1"
   sodipodi:docname="steam_tray_mono.svg"
   inkscape:version="1.3.2 (091e20ef0f, 2023-11-25)"
   xmlns:inkscape="http://www.inkscape.org/namespaces/inkscape"
   xmlns:sodipodi="http://sodipodi.sourceforge.net/DTD/sodipodi-0.dtd"
   xmlns="http://www.w3.org/2000/svg"
   xmlns:svg="http://www.w3.org/2000/svg">
  <sodipodi:namedview
     id="namedview1"
     pagecolor="#ffffff"
     bordercolor="#000000"
     borderopacity="1"
     inkscape:showpageshadow="2"
     inkscape:pageopacity="0"
     inkscape:pagecheckerboard="0"
     inkscape:deskcolor="#d1d1d1"
     inkscape:zoom="16.882174"
     inkscape:cx="6.1011098"
     inkscape:cy="8.4408558"
     inkscape:window-width="1920"
     inkscape:window-height="996"
     inkscape:window-x="0"
     inkscape:window-y="0"
     inkscape:window-maximized="1"
     inkscape:current-layer="svg1" />
  <defs
     id="defs1">
    <style
       id="current-color-scheme"
       type="text/css">
   .ColorScheme-Text { color:#dfdfdf; } .ColorScheme-Highlight { color:#4285f4; } .ColorScheme-NeutralText { color:#ff9800; } .ColorScheme-PositiveText { color:#4caf50; } .ColorScheme-NegativeText { color:#f44336; }
  </style>
  </defs>
  <path
     style="fill:currentColor"
     class="ColorScheme-Text"
     d="m 8.0001936,1e-7 c -4.297175,0 -7.80322867,3.3881043 -7.99218707,7.6386719 -2.612e-4,0.00587 0.00739,0.021618 0.00977,0.03125 a 8,8 0 0 1 0.00391,-0.095703 L 3.9201156,9.5683593 a 2.5,2.5 0 0 1 1.580078,-0.5683592 2.5,2.5 0 0 1 0.05859,0.00195 l 1.447266,-2.4140594 a 3.5,3.5 0 0 1 -0.0059,-0.087891 3.5,3.5 0 0 1 3.5000004,-3.5 3.5,3.5 0 0 1 3.500001,3.5 3.5,3.5 0 0 1 -3.500001,3.5000002 3.5,3.5 0 0 1 -0.496094,-0.03516 L 7.9747596,11.14648 a 2.5,2.5 0 0 1 0.02539,0.353516 2.5,2.5 0 0 1 -2.5,2.5 2.5,2.5 0 0 1 -2.4999996,-2.5 2.5,2.5 0 0 1 0.011719,-0.150391 L 0.24433463,9.9335943 a 8,8 0 0 1 -0.041016,-0.210938 c 0.00101,0.05524 0.010387,0.118484 0.029297,0.195313 C 1.0920411,13.409691 4.2432323,16 8.0001933,16 c 4.4182787,0 8.0000007,-3.581722 8.0000007,-7.9999999 0,-4.418278 -3.581722,-8 -8.0000004,-8 z m 2.5000004,4.5 a 2,2 0 0 0 -2.0000004,2 2,2 0 0 0 2.0000004,2 2,2 0 0 0 2.000001,-2 2,2 0 0 0 -2.000001,-2 z m 0,0.5 a 1.5,1.5 0 0 1 1.5,1.5 1.5,1.5 0 0 1 -1.5,1.5 1.5,1.5 0 0 1 -1.5000004,-1.5 1.5,1.5 0 0 1 1.5000004,-1.5 z M 5.5001936,10 a 1.5000003,1.5000003 0 0 0 -0.539062,0.101562 l 0.994141,0.507813 a 1.0001547,1.0001547 0 1 1 -0.910157,1.78125 L 4.0568346,11.884766 A 1.5000003,1.5000003 0 0 0 5.5001936,13 a 1.5000003,1.5000003 0 0 0 1.5,-1.5 1.5000003,1.5000003 0 0 0 -1.5,-1.5 z"
     id="path1" />
</svg>
