<?xml version="1.0" encoding="UTF-8" standalone="no"?>
<svg
   viewBox="0 0 64 64"
   version="1.1"
   id="svg12"
   sodipodi:docname="folder-projects.svg"
   inkscape:version="1.3.2 (091e20ef0f, 2023-11-25)"
   xmlns:inkscape="http://www.inkscape.org/namespaces/inkscape"
   xmlns:sodipodi="http://sodipodi.sourceforge.net/DTD/sodipodi-0.dtd"
   xmlns="http://www.w3.org/2000/svg"
   xmlns:svg="http://www.w3.org/2000/svg"
   xmlns:rdf="http://www.w3.org/1999/02/22-rdf-syntax-ns#"
   xmlns:cc="http://creativecommons.org/ns#"
   xmlns:dc="http://purl.org/dc/elements/1.1/">
  <metadata
     id="metadata16">
    <rdf:RDF>
      <cc:Work
         rdf:about="">
        <dc:format>image/svg+xml</dc:format>
        <dc:type
           rdf:resource="http://purl.org/dc/dcmitype/StillImage" />
      </cc:Work>
    </rdf:RDF>
  </metadata>
  <sodipodi:namedview
     pagecolor="#ffffff"
     bordercolor="#666666"
     borderopacity="1"
     objecttolerance="10"
     gridtolerance="10"
     guidetolerance="10"
     inkscape:pageopacity="0"
     inkscape:pageshadow="2"
     inkscape:window-width="1920"
     inkscape:window-height="994"
     id="namedview14"
     showgrid="true"
     inkscape:zoom="5.6568543"
     inkscape:cx="45.96194"
     inkscape:cy="33.057242"
     inkscape:window-x="0"
     inkscape:window-y="0"
     inkscape:window-maximized="1"
     inkscape:current-layer="svg12"
     inkscape:document-rotation="0"
     inkscape:lockguides="false"
     inkscape:showpageshadow="2"
     inkscape:pagecheckerboard="0"
     inkscape:deskcolor="#d1d1d1">
    <inkscape:grid
       type="xygrid"
       id="grid841"
       originx="0"
       originy="0"
       spacingy="1"
       spacingx="1"
       units="px"
       visible="true" />
  </sodipodi:namedview>
  <defs
     id="defs3051">
    <style
       type="text/css"
       id="current-color-scheme">
      .ColorScheme-Text {
        color:#31363b;
      }
      .ColorScheme-Background {
        color:#eff0f1;
      }
      .ColorScheme-Highlight {
        color:#3daee9;
      }
      .ColorScheme-ViewText {
        color:#31363b;
      }
      .ColorScheme-ViewBackground {
        color:#fcfcfc;
      }
      .ColorScheme-ViewHover {
        color:#93cee9;
      }
      .ColorScheme-ViewFocus{
        color:#3daee9;
      }
      .ColorScheme-ButtonText {
        color:#31363b;
      }
      .ColorScheme-ButtonBackground {
        color:#eff0f1;
      }
      .ColorScheme-ButtonHover {
        color:#93cee9;
      }
      .ColorScheme-ButtonFocus{
        color:#3daee9;
      }
      </style>
  </defs>
  <path
     style="fill:currentColor;fill-opacity:1;stroke:none"
     d="m 9,6.000034 c -3,0 -5,2 -4.992,5.197014 L 4,20 c -0.5255187,0 -1,0.363715 -1,1 l 0.008,0.197048 H 3.01 c -5e-5,0.004 -0.002,0.008 -0.002,0.01172 L 3,53 c 0,3 2,5 5,5 v 0 h 48 v 0 c 3,0 5,-2 5,-5 l 0.008,-31.791232 v -0.01172 L 61,17 c 0,-0.484427 -0.416433,-1 -1,-1 v 0 0 l 0.008,-0.802952 C 60,12 58,10 55,10 H 32 C 32,8 30,6 28,6.000034 Z"
     class="ColorScheme-Highlight"
     id="path4"
     sodipodi:nodetypes="ccccccsccccccccccccccccc" />
  <path
     style="fill-opacity:0.33;fill-rule:evenodd"
     d="M 9,6 C 6,6 4,8 4.0000003,11 v 9 H 22 l 4,-4 h 34 v -1 0 0 c 0,-3 -2,-5 -5,-5 L 32,9.9999657 C 32,8 30,6 28,5.9999657 Z"
     id="path6"
     sodipodi:nodetypes="ccccccccccccc" />
  <path
     style="fill:#737373;fill-opacity:0.2;fill-rule:evenodd;opacity:0.01"
     d="m 28,6 3,5 h 2 22 V 10 H 33 32 C 32,8 30,6 28,6 Z m -2,10 -4,4 H 4 c -0.5804871,0 -1,0.403257 -1,1 h 20 z"
     id="path8"
     sodipodi:nodetypes="cccccccccccccc" />
  <path
     style="fill-opacity:0.2;fill-rule:evenodd"
     d="m 26,16 -6,3 H 4 v 1 H 22 Z M 5,57 c 0,0.416776 2,1 3,1 h 2 42 3 c 2.476706,0 4,-0.558829 4,-1 H 52 10 Z"
     class="ColorScheme-Text"
     id="path10"
     sodipodi:nodetypes="ccccccccccccccc" />
  <path
     d="m 38.798292,39.109903 c -0.13647,-0.427552 -0.345247,-0.828631 -0.625672,-1.203236 -0.280962,-0.374189 -0.629818,-0.706546 -1.046922,-0.996931 -0.417345,-0.290118 -0.906567,-0.519232 -1.467965,-0.687527 -0.224999,-0.06079 -0.620761,-0.156528 -1.14205,-0.286494 -0.372587,-0.09256 -0.721883,-0.187519 -1.115635,-0.284244 v -4.719896 c 0.393737,0.107075 0.667289,0.276853 0.959283,0.465649 0.624702,0.403573 1.016393,1.093983 1.131147,2.031512 h 3.026365 c -0.0284,-0.803589 -0.203434,-1.46254 -0.524818,-2.054506 -0.353084,-0.649264 -0.830241,-1.206447 -1.43194,-1.649857 -0.601563,-0.442957 -1.322357,-0.780818 -2.116501,-1.002493 -0.344918,-0.09611 -0.649742,-0.176974 -1.043477,-0.231403 V 27 h -2.800011 v 1.480698 c -0.306286,0.04658 -0.662722,0.109153 -0.981142,0.189744 -0.75435,0.19121 -1.416972,0.485195 -2.01036,0.882347 -0.593743,0.397531 -1.065433,0.897877 -1.426446,1.501241 -0.361097,0.603709 -0.538626,1.317888 -0.538626,2.142905 0,0.427901 0.0614,0.847913 0.181702,1.260515 0.120301,0.412572 0.325545,0.802125 0.614366,1.16883 0.288871,0.366721 0.67789,0.699046 1.167548,0.996991 0.489255,0.297888 1.080839,0.538584 1.818943,0.721943 0.406294,0.104629 0.823817,0.202421 1.17382,0.293557 v 5.338776 c -0.481176,-0.130322 -0.957563,-0.33031 -1.342099,-0.601765 -0.401173,-0.282463 -0.702889,-0.622909 -0.927403,-1.066271 -0.208948,-0.412025 -0.309582,-0.916366 -0.324072,-1.452085 H 25 c 0.03002,0.937517 0.229692,1.76316 0.598156,2.471968 0.38493,0.741284 0.898325,1.337543 1.540157,1.810849 0.641492,0.473809 1.373471,0.81949 2.239946,1.048734 0.388597,0.102811 0.827995,0.176765 1.221754,0.233494 v 1.577985 h 2.800019 v -1.541982 c 0.437506,-0.04775 0.829377,-0.120099 1.248074,-0.217836 0.818157,-0.19075 1.559462,-0.492683 2.201326,-0.905202 0.641466,-0.412521 1.164661,-0.943234 1.557975,-1.59293 C 38.800272,42.093335 39,41.310108 39,40.393376 c 5.2e-5,-0.4276 -0.06567,-0.855544 -0.201777,-1.283458 z m -8.198196,-4.176748 c -0.525014,-0.16711 -1.046159,-0.405733 -1.402218,-0.716444 -0.377161,-0.328334 -0.554479,-0.782793 -0.554479,-1.363651 0,-0.412573 0.105729,-0.756277 0.306438,-1.031364 0.200436,-0.275032 0.433663,-0.492782 0.738497,-0.653187 0.270399,-0.142374 0.605504,-0.248447 0.911759,-0.318662 z m 5.201965,6.686402 c -0.12857,0.297927 -0.33681,0.561434 -0.625752,0.790706 -0.28884,0.229156 -0.688792,0.416427 -1.153996,0.561469 -0.196882,0.06154 -0.359787,0.109077 -0.622265,0.144461 v -4.781798 c 0.437498,0.117107 0.795379,0.238036 1.151778,0.362983 0.352694,0.122491 0.688978,0.332269 0.985988,0.630174 0.296864,0.298006 0.451017,0.760291 0.451017,1.386638 6.1e-5,0.30578 -0.05855,0.607379 -0.186766,0.905345 z"
     id="path25907-1-5-7"
     style="fill:#e5e5e5;fill-opacity:1;stroke-width:0.044643" />
</svg>
