<?xml version="1.0" encoding="UTF-8" standalone="no"?>
<svg
   viewBox="0 0 256 256"
   id="svg2"
   version="1.1"
   inkscape:version="1.3.2 (091e20ef0f, 2023-11-25)"
   sodipodi:docname="org.kde.plasma.folder.svg"
   xml:space="preserve"
   xmlns:inkscape="http://www.inkscape.org/namespaces/inkscape"
   xmlns:sodipodi="http://sodipodi.sourceforge.net/DTD/sodipodi-0.dtd"
   xmlns="http://www.w3.org/2000/svg"
   xmlns:svg="http://www.w3.org/2000/svg"
   xmlns:rdf="http://www.w3.org/1999/02/22-rdf-syntax-ns#"
   xmlns:cc="http://creativecommons.org/ns#"
   xmlns:dc="http://purl.org/dc/elements/1.1/"><metadata
     id="metadata10"><rdf:RDF><cc:Work
         rdf:about=""><dc:format>image/svg+xml</dc:format><dc:type
           rdf:resource="http://purl.org/dc/dcmitype/StillImage" /></cc:Work></rdf:RDF></metadata><sodipodi:namedview
     pagecolor="#ffffff"
     bordercolor="#666666"
     borderopacity="1"
     objecttolerance="10"
     gridtolerance="10"
     guidetolerance="10"
     inkscape:pageopacity="0"
     inkscape:pageshadow="2"
     inkscape:window-width="1920"
     inkscape:window-height="996"
     id="namedview8"
     showgrid="false"
     inkscape:zoom="1.3037282"
     inkscape:cx="-3.8351554"
     inkscape:cy="116.20521"
     inkscape:window-x="0"
     inkscape:window-y="0"
     inkscape:window-maximized="1"
     inkscape:current-layer="svg2"
     inkscape:showpageshadow="2"
     inkscape:pagecheckerboard="0"
     inkscape:deskcolor="#d1d1d1" /><defs
     id="defs4"><style
       id="current-color-scheme"
       type="text/css">.ColorScheme-Text { color:#f2f2f2; }
.ColorScheme-Background { color:#31363b; }
.ColorScheme-Highlight { color:#3daee9; }
.ColorScheme-ViewText { color:#31363b; }
.ColorScheme-ViewBackground { color:#314045; }
.ColorScheme-ViewHover { color:#93cee9; }
.ColorScheme-ViewFocus { color:#3daee9; }
.ColorScheme-ButtonText { color:#31363b; }
.ColorScheme-ButtonBackground { color:#31363b; }
.ColorScheme-ButtonHover { color:#93cee9; }
.ColorScheme-ButtonFocus { color:#3daee9; }
</style><linearGradient
       id="linearGradient4172-0"><stop
         style="stop-color:#f89406;stop-opacity:1"
         offset="0"
         id="stop4174-4-7" /><stop
         style="stop-color:#faa938;stop-opacity:1"
         offset="1"
         id="stop4176-5" /></linearGradient><style
       id="current-color-scheme-3"
       type="text/css">.ColorScheme-Text { color:#31363b; }
.ColorScheme-Background { color:#eff0f1; }
.ColorScheme-Highlight { color:#3daee9; }
.ColorScheme-ViewText { color:#31363b; }
.ColorScheme-ViewBackground { color:#fcfcfc; }
.ColorScheme-ViewHover { color:#93cee9; }
.ColorScheme-ViewFocus { color:#3daee9; }
.ColorScheme-ButtonText { color:#31363b; }
.ColorScheme-ButtonBackground { color:#eff0f1; }
.ColorScheme-ButtonHover { color:#93cee9; }
.ColorScheme-ButtonFocus { color:#3daee9; }
</style><style
       id="current-color-scheme-5"
       type="text/css">.ColorScheme-Text { color:#31363b; }
.ColorScheme-Background { color:#eff0f1; }
.ColorScheme-Highlight { color:#3daee9; }
.ColorScheme-ViewText { color:#31363b; }
.ColorScheme-ViewBackground { color:#fcfcfc; }
.ColorScheme-ViewHover { color:#93cee9; }
.ColorScheme-ViewFocus { color:#3daee9; }
.ColorScheme-ButtonText { color:#31363b; }
.ColorScheme-ButtonBackground { color:#eff0f1; }
.ColorScheme-ButtonHover { color:#93cee9; }
.ColorScheme-ButtonFocus { color:#3daee9; }
</style><style
       id="current-color-scheme-7"
       type="text/css">.ColorScheme-Text { color:#31363b; }
.ColorScheme-Background { color:#eff0f1; }
.ColorScheme-Highlight { color:#3daee9; }
.ColorScheme-ViewText { color:#31363b; }
.ColorScheme-ViewBackground { color:#fcfcfc; }
.ColorScheme-ViewHover { color:#93cee9; }
.ColorScheme-ViewFocus { color:#3daee9; }
.ColorScheme-ButtonText { color:#31363b; }
.ColorScheme-ButtonBackground { color:#eff0f1; }
.ColorScheme-ButtonHover { color:#93cee9; }
.ColorScheme-ButtonFocus { color:#3daee9; }
</style><style
       id="current-color-scheme-6"
       type="text/css">.ColorScheme-Text { color:#31363b; }
.ColorScheme-Background { color:#eff0f1; }
.ColorScheme-Highlight { color:#3daee9; }
.ColorScheme-ViewText { color:#31363b; }
.ColorScheme-ViewBackground { color:#fcfcfc; }
.ColorScheme-ViewHover { color:#93cee9; }
.ColorScheme-ViewFocus { color:#3daee9; }
.ColorScheme-ButtonText { color:#31363b; }
.ColorScheme-ButtonBackground { color:#eff0f1; }
.ColorScheme-ButtonHover { color:#93cee9; }
.ColorScheme-ButtonFocus { color:#3daee9; }
</style><style
       id="current-color-scheme-2"
       type="text/css">.ColorScheme-Text { color:#31363b; }
.ColorScheme-Background { color:#eff0f1; }
.ColorScheme-Highlight { color:#3daee9; }
.ColorScheme-ViewText { color:#31363b; }
.ColorScheme-ViewBackground { color:#fcfcfc; }
.ColorScheme-ViewHover { color:#93cee9; }
.ColorScheme-ViewFocus { color:#3daee9; }
.ColorScheme-ButtonText { color:#31363b; }
.ColorScheme-ButtonBackground { color:#eff0f1; }
.ColorScheme-ButtonHover { color:#93cee9; }
.ColorScheme-ButtonFocus { color:#3daee9; }
</style><linearGradient
       id="linearGradient4172"><stop
         style="stop-color:#f2cb40"
         id="stop4174" /><stop
         offset="1"
         style="stop-color:#f5d76e"
         id="stop4176" /></linearGradient><style
       type="text/css"
       id="current-color-scheme-1">
      .ColorScheme-Text {
        color:#31363b;
      }
      .ColorScheme-Background {
        color:#eff0f1;
      }
      .ColorScheme-Highlight {
        color:#3daee9;
      }
      .ColorScheme-ViewText {
        color:#31363b;
      }
      .ColorScheme-ViewBackground {
        color:#fcfcfc;
      }
      .ColorScheme-ViewHover {
        color:#93cee9;
      }
      .ColorScheme-ViewFocus{
        color:#3daee9;
      }
      .ColorScheme-ButtonText {
        color:#31363b;
      }
      .ColorScheme-ButtonBackground {
        color:#eff0f1;
      }
      .ColorScheme-ButtonHover {
        color:#93cee9;
      }
      .ColorScheme-ButtonFocus{
        color:#3daee9;
      }
      </style></defs><path
     style="fill:currentColor;fill-opacity:0.5;stroke:none"
     d="m 16,10 224,0 c 3.324,0 6,2.676 6,6 l 0,224 c 0,3.324 -2.676,6 -6,6 l -224,0 c -3.324,0 -6,-2.676 -6,-6 L 10,16 c 0,-3.324 2.676,-6 6,-6 z"
     class="ColorScheme-ButtonText"
     id="rect4240" /><path
     style="fill:currentColor;fill-opacity:1;stroke:none"
     d="m 16,12 224,0 c 2.216,0 4,1.784 4,4 l 0,224 c 0,2.216 -1.784,4 -4,4 l -224,0 c -2.216,0 -4,-1.784 -4,-4 L 12,16 c 0,-2.216 1.784,-4 4,-4 z"
     class="ColorScheme-Background"
     id="rect4238" /><path
     style="fill:currentColor;fill-opacity:1.0;stroke:none"
     class="ColorScheme-Text"
     d="m 147.75781,20.638673 -1.30273,0.0957 0,9.179687 c 0,0.50252 0.0594,0.920653 0.17578,1.253907 0.11637,0.32796 0.29574,0.579346 0.53906,0.753906 0.24333,0.17456 0.51937,0.296468 0.82617,0.365234 0.3121,0.06347 0.69801,0.0957 1.15821,0.0957 l 0.62695,0 0.0703,-0.90625 -0.35742,-0.02344 c -0.22746,-0.01587 -0.4043,-0.02846 -0.53125,-0.03906 -0.12695,-0.01587 -0.264,-0.03799 -0.41211,-0.06445 -0.14283,-0.03172 -0.25212,-0.06704 -0.32617,-0.109375 -0.0688,-0.04761 -0.13884,-0.107014 -0.21289,-0.175781 -0.0741,-0.06877 -0.12842,-0.155925 -0.16016,-0.261719 -0.0265,-0.105793 -0.0492,-0.227701 -0.0703,-0.365234 -0.0159,-0.137533 -0.0234,-0.30428 -0.0234,-0.5 l 0,-9.298828 z m 10.75,0 -1.3164,0.0957 0,2.609375 0.0625,1.912109 c -0.12696,-0.232746 -0.26148,-0.42977 -0.4043,-0.59375 -0.13753,-0.169266 -0.30681,-0.325923 -0.50781,-0.46875 -0.20102,-0.148113 -0.44035,-0.259931 -0.72071,-0.333984 -0.28035,-0.07405 -0.59871,-0.109375 -0.95312,-0.109375 -1.11084,0 -1.99195,0.396 -2.64258,1.189453 -0.64535,0.79346 -0.9668,1.831788 -0.9668,3.117188 0,1.354166 0.31136,2.431722 0.93555,3.230468 0.62947,0.793454 1.52319,1.189453 2.68164,1.189453 1.20076,0 2.0743,-0.547611 2.61914,-1.642578 l 0.11914,1.484375 1.09375,0 0,-11.679687 z m -76.019529,0.0957 0,11.583984 1.394531,0 0,-5.404297 6.03125,0 0,5.404297 1.396485,0 0,-11.583984 -1.396485,0 0,5.164063 -6.03125,0 0,-5.164063 -1.394531,0 z m 46.369139,0 0,11.583984 1.41992,0 0,-5.308593 4.69727,0 0,-1.015625 -4.69727,0 0,-4.189453 5.04688,0 0.0781,-1.070313 -6.54492,0 z m -31.626951,3.015628 c -1.232504,0 -2.200766,0.401045 -2.904297,1.205078 -0.698243,0.798747 -1.048828,1.856688 -1.048828,3.173828 0,1.2854 0.355631,2.333252 1.064453,3.142578 0.708821,0.804034 1.672038,1.205078 2.888672,1.205078 1.190186,0 2.146403,-0.403563 2.871091,-1.21289 0.7247,-0.814613 1.08789,-1.859946 1.08789,-3.134766 0,-1.31714 -0.34863,-2.375081 -1.04687,-3.173828 -0.698242,-0.804033 -1.669029,-1.205078 -2.912111,-1.205078 z m 9.464841,0 c -1.07381,0 -1.9353,0.470543 -2.58593,1.412109 l -0.1504,-1.238281 -1.06445,0 0,8.394531 1.31836,0 0,-5.117187 c 0.11108,-0.735267 0.35294,-1.325191 0.72852,-1.769531 0.38086,-0.44962 0.89371,-0.675782 1.53906,-0.675782 0.58715,0 0.99015,0.22111 1.20703,0.660157 0.21688,0.433753 0.32617,1.163246 0.32617,2.189453 l 0,4.71289 1.31641,0 0,-4.308593 c 0.0159,-0.72998 0.0456,-1.165774 0.0879,-1.308594 0.14282,-0.62948 0.41187,-1.112059 0.80859,-1.445313 0.39674,-0.333246 0.84962,-0.5 1.35742,-0.5 0.22746,0 0.42448,0.03475 0.59375,0.103516 0.17456,0.06347 0.31357,0.165201 0.41407,0.302734 0.1058,0.137534 0.19044,0.277102 0.2539,0.419922 0.0635,0.137534 0.1083,0.319415 0.13477,0.546875 0.0264,0.227454 0.0415,0.421385 0.0469,0.580078 0.0106,0.1534 0.0156,0.357422 0.0156,0.611328 l 0,4.998047 1.31836,0 0,-5.412109 c 0,-2.105307 -0.8584,-3.15625 -2.57227,-3.15625 -1.21663,0 -2.1381,0.567791 -2.76758,1.705078 -0.19572,-0.53426 -0.47428,-0.952393 -0.83398,-1.253906 -0.35971,-0.301513 -0.85743,-0.451172 -1.4922,-0.451172 z m 13.16407,0 c -1.11085,0 -2.0267,0.398519 -2.7461,1.197266 -0.7194,0.798746 -1.07812,1.869304 -1.07812,3.21289 0,1.327714 0.36629,2.38061 1.10156,3.158203 0.73527,0.772294 1.69344,1.158203 2.87305,1.158203 1.05794,0 2.00154,-0.246341 2.83203,-0.738281 l -0.27735,-0.927734 c -0.44433,0.222173 -0.84537,0.38892 -1.20507,0.5 -0.35971,0.111087 -0.76018,0.166015 -1.19922,0.166015 -0.80932,0 -1.46427,-0.256424 -1.9668,-0.769531 -0.50251,-0.518386 -0.77603,-1.310379 -0.81836,-2.378906 l 5.67383,0 0.0469,-0.667969 c 0,-1.227213 -0.27661,-2.183427 -0.83203,-2.871094 -0.55016,-0.692946 -1.35167,-1.039062 -2.40432,-1.039062 z m 20.75585,0 c -1.2325,0 -2.20076,0.401045 -2.90429,1.205078 -0.69824,0.798747 -1.04688,1.856688 -1.04688,3.173828 0,1.2854 0.35564,2.333252 1.06446,3.142578 0.70882,0.804034 1.67008,1.205078 2.88671,1.205078 1.19019,0 2.14836,-0.403563 2.87305,-1.21289 0.72469,-0.814613 1.08789,-1.859946 1.08789,-3.134766 0,-1.31714 -0.35058,-2.375081 -1.04883,-3.173828 -0.69824,-0.804033 -1.66903,-1.205078 -2.91211,-1.205078 z m 23.42383,0 c -1.11084,0 -2.02669,0.398519 -2.74609,1.197266 -0.7194,0.798746 -1.07813,1.869304 -1.07813,3.21289 0,1.327714 0.3663,2.38061 1.10157,3.158203 0.73527,0.772294 1.69344,1.158203 2.87304,1.158203 1.05794,0 2.00155,-0.246341 2.83203,-0.738281 l -0.27734,-0.927734 c -0.44434,0.222173 -0.84538,0.38892 -1.20508,0.5 -0.3597,0.111087 -0.76017,0.166015 -1.19922,0.166015 -0.80932,0 -1.46427,-0.256424 -1.96679,-0.769531 -0.50251,-0.518386 -0.77603,-1.310379 -0.81836,-2.378906 l 5.67383,0 0.0469,-0.667969 c 0,-1.227213 -0.27661,-2.183427 -0.83203,-2.871094 -0.55016,-0.692946 -1.35167,-1.039062 -2.40433,-1.039062 z m 8.88672,0.08594 c -0.50781,0 -0.99292,0.144047 -1.45312,0.429687 -0.45492,0.28036 -0.84082,0.721192 -1.15821,1.324219 l -0.14257,-1.666016 -1.05469,0 0,8.394531 1.3164,0 0,-4.751953 c 0,-0.745846 0.23373,-1.378091 0.69922,-1.896484 0.47079,-0.518393 1.06576,-0.777344 1.78516,-0.777344 0.14811,0 0.32747,0.02017 0.53906,0.0625 l 0.0566,-1.078125 c -0.1534,-0.02647 -0.34986,-0.04102 -0.58789,-0.04102 z m -75.695311,0.919921 c 0.862223,0 1.512125,0.310795 1.951172,0.929688 0.439046,0.613607 0.658203,1.432778 0.658203,2.458984 0,0.65592 -0.08968,1.23071 -0.269532,1.722657 -0.17985,0.486653 -0.471028,0.877601 -0.873046,1.173828 -0.396729,0.290933 -0.884929,0.435546 -1.466797,0.435546 -0.846354,10e-7 -1.493164,-0.306315 -1.9375,-0.919921 -0.444336,-0.613607 -0.666016,-1.420162 -0.666016,-2.419922 0,-1.020914 0.22168,-1.837565 0.666016,-2.451172 0.444336,-0.618893 1.091146,-0.929688 1.9375,-0.929688 z m 22.660151,0 c 1.33303,0 2.03224,0.905764 2.09571,2.714844 l -4.57031,0 c 0.0741,-0.835773 0.33301,-1.497722 0.77734,-1.984375 0.44963,-0.486653 1.01489,-0.730469 1.69726,-0.730469 z m 20.72461,0 c 0.86222,0 1.51408,0.310795 1.95313,0.929688 0.43905,0.613607 0.6582,1.432778 0.6582,2.458984 0,0.65592 -0.0897,1.23071 -0.26953,1.722657 -0.17985,0.486653 -0.47103,0.877601 -0.87305,1.173828 -0.39672,0.290933 -0.88688,0.435546 -1.46875,0.435546 -0.84635,10e-7 -1.4912,-0.306315 -1.93554,-0.919921 -0.44434,-0.613607 -0.66602,-1.420162 -0.66602,-2.419922 0,-1.020914 0.22168,-1.837565 0.66602,-2.451172 0.44434,-0.618893 1.08919,-0.929688 1.93554,-0.929688 z m 14.24415,0 c 0.78288,0 1.3728,0.291181 1.76953,0.873047 0.40202,0.581867 0.60156,1.442792 0.60156,2.580078 -0.005,1.042074 -0.19727,1.84611 -0.57813,2.41211 -0.38086,0.566 -1.00301,0.847656 -1.86523,0.847656 -0.81991,0 -1.42497,-0.30127 -1.81641,-0.904297 -0.38614,-0.603027 -0.58008,-1.429768 -0.58008,-2.482422 10e-6,-1.05794 0.20655,-1.876545 0.61915,-2.453125 0.41259,-0.581866 1.0297,-0.873047 1.84961,-0.873047 z m 9.21093,0 c 1.33302,0 2.03224,0.905764 2.09571,2.714844 l -4.57032,0 c 0.0741,-0.835773 0.33301,-1.497722 0.77735,-1.984375 0.44962,-0.486653 1.01489,-0.730469 1.69726,-0.730469 z"
     id="path4427" /><path
     style="fill:currentColor;fill-opacity:1;stroke:none;stroke-width:0.999999"
     d="m 22.000664,44.00001 v 1 9 0 c -0.52036,0.0215 -1.02296,0.50548 -0.9999,1 h 0.002 c -4e-5,0.004 -0.002,0.008 -0.002,0.0117 v 34.98828 c 0.009,0.99939 0.98012,2.00599 1.9998,2 v 0 h 53.99455 v 0 c 1.01173,0.0221 1.99421,-0.97253 1.9998,-2 v -34.98828 -0.0117 -4 c 0.0594,-0.58924 -0.4079,-1.006383 -0.9999,-1 v -4 c 0,-0.003 -0.002,0.004 -0.002,0 h 0.002 v 0 c -0.006,-1.000671 -0.95382,-1.995969 -1.9998,-2 h -25.99738 l -3.99959,-4 h -19.99798 c -2.03724,-0.0051 -3.96391,1.970324 -3.9996,4 z"
     class="ColorScheme-Highlight "
     id="path1"
     sodipodi:nodetypes="ccccccsccccccccccscccccccc" /><path
     style="fill-opacity:0.33;fill-rule:evenodd;stroke-width:0.999999"
     d="m 22.030284,44.00001 -0.0296,1 v 9 h 17.99818 l 3.99959,-4 h 33.99657 v -4 c 0,-0.003 -0.002,0.004 -0.002,0 h 0.002 c -0.006,-1.011275 -1.00402,-2.005681 -1.9998,-2 h -25.99738 l -3.99959,-4 h -19.99798 c -2.00745,0.0026 -4.00601,2.0072 -3.96998,4 z"
     id="path2"
     sodipodi:nodetypes="ccccccsccccccc" /><path
     style="fill:#ffffff;fill-opacity:0.2;fill-rule:evenodd;stroke-width:0.999999"
     d="m 45.998244,40.00001 2.9997,5 h 1.99979 24.99748 c 1.21281,-0.06389 2.00554,1.005906 1.9998,2 v -1 c 6e-4,-0.992592 -0.9886,-1.993446 -1.9998,-2 h -24.99748 -0.9999 z m -1.9998,10 -3.9996,4 h -18.99808 v 1 h 19.99798 z"
     id="path3"
     sodipodi:nodetypes="cccccccccccccccc" /><path
     style="color:#31363b;fill-opacity:0.2;fill-rule:evenodd;stroke-width:0.999999"
     d="m 43.998444,50.00001 -5.99939,3 h -15.99839 v 1 h 17.99818 z m -22.99768,40 c 0.006,1.0086 0.9937,2.00146 1.9998,2 v 0 h 53.99455 v 0 0 c 1.00283,0.002 2.00114,-0.99966 1.9998,-2 z"
     class="ColorScheme-Text"
     id="path4"
     sodipodi:nodetypes="cccccccccccccc" /><g
     id="g1"
     transform="translate(98,34.00001)"><path
       style="fill:currentColor;fill-opacity:1;stroke:none"
       d="m 4.0007645,10 v 1 9 0 c -0.5204163,0.02153 -1.0230671,0.505476 -1,1 h 0.00195 c -4.69e-5,0.004 -0.00195,0.008 -0.00195,0.01172 V 56 c 0.00871,0.999392 0.9802128,2.005992 2,2 v 0 H 59.000765 v 0 c 1.011834,0.02205 1.994418,-0.972534 2,-2 V 21.011719 21 17 c 0.05937,-0.589244 -0.407937,-1.006383 -1,-1 v -4 c 0,-0.003 -0.002,0.004 -0.002,0 h 0.002 v 0 c -0.0061,-1.000671 -0.953916,-1.995969 -2,-2 H 32.000764 l -4,-4 H 8.0007645 c -2.0374437,-0.00508 -3.964306,1.9703236 -4,4 z"
       class="ColorScheme-Highlight "
       id="path1-6"
       sodipodi:nodetypes="ccccccsccccccccccscccccccc" /><path
       style="fill-opacity:0.33;fill-rule:evenodd"
       d="m 4.0303815,10 -0.029617,1 v 9 H 22.000764 l 4,-4 h 34.000001 v -4 c 0,-0.003 -0.002,0.004 -0.002,0 h 0.002 c -0.0062,-1.011275 -1.004117,-2.0056814 -2,-2 H 32.000764 l -4,-4 H 8.0007645 C 5.9931091,6.00259 3.9943563,8.0072001 4.0303815,10 Z"
       id="path2-7"
       sodipodi:nodetypes="ccccccsccccccc" /><path
       style="fill:#ffffff;fill-opacity:0.2;fill-rule:evenodd"
       d="m 28.000764,6 3,5 h 2 25.000001 c 1.212936,-0.06389 2.005746,1.005906 2,2 v -1 c 5.99e-4,-0.992592 -0.988701,-1.993446 -2,-2 h -25.000001 -1 z m -2,10 -4,4 H 3.0007645 v 1 H 23.000764 Z"
       id="path3-5"
       sodipodi:nodetypes="cccccccccccccccc" /><path
       style="color:#31363b;fill-opacity:0.2;fill-rule:evenodd"
       d="m 26.000764,16 -6,3 H 4.0007645 v 1 H 22.000764 Z M 3.0007645,56 c 0.00641,1.008598 0.9938012,2.001463 2,2 v 0 H 59.000765 v 0 0 c 1.002929,0.0016 2.00134,-0.999662 2,-2 z"
       class="ColorScheme-Text"
       id="path4-3"
       sodipodi:nodetypes="cccccccccccccc" /><path
       id="path12-2"
       class="ColorScheme-Background"
       d="m 23,27 v 1 18 1 h 12 l 6,-6 V 27 Z m 1,1 h 16 v 13 h -5 v 5 H 24 Z"
       style="color:#eff0f1;fill:#e5e5e5;fill-opacity:1;stroke:none" /></g><g
     id="g2"
     transform="translate(173,34)"><path
       style="fill:currentColor;fill-opacity:1;stroke:none;stroke-width:0.999999"
       d="m 4.0006634,10.000011 v 1 9 0 c -0.520363,0.02153 -1.022963,0.505476 -0.999899,1 h 0.0019 c -4.6e-5,0.004 -0.0019,0.008 -0.0019,0.01172 v 34.98828 c 0.0087,0.99939 0.980114,2.00599 1.999799,2 v 0 H 58.995109 v 0 c 1.011732,0.022 1.994216,-0.97253 1.999798,-2 v -34.988281 -0.01172 -4 c 0.05936,-0.589244 -0.407896,-1.006383 -0.999899,-1 v -4 c 0,-0.003 -0.002,0.004 -0.002,0 h 0.002 v 0 c -0.0061,-1.000671 -0.953819,-1.995969 -1.999798,-2 H 31.997836 L 27.99824,6.0000099 H 8.0002599 c -2.0372375,-0.0051 -3.9639055,1.970324 -3.9995965,4.0000011 z"
       class="ColorScheme-Highlight "
       id="path1-62"
       sodipodi:nodetypes="ccccccsccccccccccscccccccc" /><path
       style="fill-opacity:0.33;fill-rule:evenodd;stroke-width:0.999999"
       d="m 4.0302774,10.000011 -0.02961,1 v 9 H 21.998846 l 3.999596,-4 h 33.996566 v -4 c 0,-0.003 -0.002,0.004 -0.002,0 h 0.002 c -0.0062,-1.011275 -1.004016,-2.005681 -1.999798,-2 H 31.997836 L 27.99824,6.0000109 H 8.0002599 c -2.0074525,0.0026 -4.0060035,2.0072 -3.9699825,4.0000001 z"
       id="path2-9"
       sodipodi:nodetypes="ccccccsccccccc" /><path
       style="fill:#ffffff;fill-opacity:0.2;fill-rule:evenodd;stroke-width:0.999999"
       d="m 27.99824,6.0000109 2.999697,5.0000001 h 1.999798 24.997475 c 1.212814,-0.06389 2.005543,1.005906 1.999798,2 v -1 c 6e-4,-0.992592 -0.988601,-1.993446 -1.999798,-2 H 32.997735 31.997836 Z m -1.999798,10.0000001 -3.999596,4 H 3.0007644 v 1 H 22.998745 Z"
       id="path3-1"
       sodipodi:nodetypes="cccccccccccccccc" /><path
       style="color:#31363b;fill-opacity:0.2;fill-rule:evenodd;stroke-width:0.999999"
       d="m 25.998442,16.000011 -5.999394,3 H 4.0006634 v 1 H 21.998846 Z m -22.9976776,40 c 0.0064,1.0086 0.993701,2.00146 1.999799,2 v 0 H 58.995109 v 0 0 c 1.002828,0.002 2.001139,-0.99966 1.999798,-2 z"
       class="ColorScheme-Text"
       id="path4-2"
       sodipodi:nodetypes="cccccccccccccc" /><path
       id="path12-7"
       class="ColorScheme-Background"
       d="m 29,27 v 1 6 h 1 v -6 h 4 v 6 h 1 V 27 Z M 25.707031,34.300781 25,35.007812 l 4.292969,4.292969 0.0078,-0.0078 2.707031,2.707031 2.699219,-2.699219 4.292969,-4.292969 -0.707031,-0.707031 -4.292969,4.292969 -2,2 -2,-2 z M 22,44 v 2 1 h 1 19 v -1 -2 h -1 v 2 H 23 v -2 z"
       style="color:#eff0f1;fill:#e5e5e5;fill-opacity:1;stroke:none" /></g><g
     id="g3"
     transform="translate(18,104.00001)"><path
       style="fill:currentColor;fill-opacity:1;stroke:none;stroke-width:0.999999"
       d="m 4.0006635,10 v 1 9 0 c -0.5203637,0.02153 -1.0229638,0.505476 -0.999899,1 h 0.00195 c -4.69e-5,0.004 -0.00195,0.008 -0.00195,0.01172 V 56 c 0.00871,0.999392 0.9801138,2.005992 1.999798,2 v 0 H 58.995109 v 0 c 1.011732,0.02205 1.994216,-0.972534 1.999798,-2 V 21.011719 21 17 c 0.05936,-0.589244 -0.407896,-1.006383 -0.999899,-1 v -4 c 0,-0.003 -0.002,0.004 -0.002,0 h 0.002 v 0 c -0.0061,-1.000671 -0.953819,-1.995969 -1.999798,-2 H 31.997836 L 27.99824,6 H 8.0002595 C 5.9630216,5.99492 4.0363539,7.9703236 4.0006635,10 Z"
       class="ColorScheme-Highlight "
       id="path1-0"
       sodipodi:nodetypes="ccccccsccccccccccscccccccc" /><path
       style="fill-opacity:0.33;fill-rule:evenodd;stroke-width:0.999999"
       d="m 4.0302775,10 -0.029614,1 v 9 H 21.998846 l 3.999596,-4 h 33.996566 v -4 c 0,-0.003 -0.002,0.004 -0.002,0 h 0.002 C 59.988808,10.988725 58.990992,9.9943186 57.99521,10 H 31.997836 L 27.99824,6 H 8.0002595 C 5.9928069,6.00259 3.994256,8.0072001 4.0302775,10 Z"
       id="path2-93"
       sodipodi:nodetypes="ccccccsccccccc" /><path
       style="fill:#ffffff;fill-opacity:0.2;fill-rule:evenodd;stroke-width:0.999999"
       d="m 27.99824,6 2.999697,5 h 1.999798 24.997475 c 1.212814,-0.06389 2.005543,1.005906 1.999798,2 v -1 c 6e-4,-0.992592 -0.988601,-1.993446 -1.999798,-2 H 32.997735 31.997836 Z m -1.999798,10 -3.999596,4 H 3.0007645 v 1 H 22.998745 Z"
       id="path3-6"
       sodipodi:nodetypes="cccccccccccccccc" /><path
       style="color:#31363b;fill-opacity:0.2;fill-rule:evenodd;stroke-width:0.999999"
       d="m 25.998442,16 -5.999394,3 H 4.0006635 v 1 H 21.998846 Z M 3.0007645,56 c 0.00641,1.008598 0.9937008,2.001463 1.999798,2 v 0 H 58.995109 v 0 0 c 1.002828,0.0016 2.001139,-0.999662 1.999798,-2 z"
       class="ColorScheme-Text"
       id="path4-0"
       sodipodi:nodetypes="cccccccccccccc" /><path
       id="path12-9"
       class="ColorScheme-Background"
       d="M 22,27 V 47 H 42 V 27 Z m 1,1 h 18 v 17 1 H 23 v -1 z m 0,17 h 4 l 3,-3 -2,-2 z m 18,0 -6,-6 -6,6 z M 26.5,29 C 25.115,29 24,30.115 24,31.5 24,32.885 25.115,34 26.5,34 27.885,34 29,32.885 29,31.5 29,30.115 27.885,29 26.5,29 Z"
       style="color:#eff0f1;fill:#e5e5e5;fill-opacity:1;stroke:none" /></g><g
     id="g4"
     transform="translate(98,104.00001)"><path
       style="fill:currentColor;fill-opacity:1;stroke:none;stroke-width:0.999999"
       d="m 4.0006635,10 v 1 9 0 c -0.5203637,0.02153 -1.0229638,0.505476 -0.999899,1 h 0.00195 c -4.69e-5,0.004 -0.00195,0.008 -0.00195,0.01172 V 56 c 0.00871,0.999392 0.9801138,2.005992 1.999798,2 v 0 H 58.995109 v 0 c 1.011732,0.02205 1.994216,-0.972534 1.999798,-2 V 21.011719 21 17 c 0.05936,-0.589244 -0.407896,-1.006383 -0.999899,-1 v -4 c 0,-0.003 -0.002,0.004 -0.002,0 h 0.002 v 0 c -0.0061,-1.000671 -0.953819,-1.995969 -1.999798,-2 H 31.997836 L 27.99824,6 H 8.0002595 C 5.9630216,5.99492 4.0363539,7.9703236 4.0006635,10 Z"
       class="ColorScheme-Highlight "
       id="path1-2"
       sodipodi:nodetypes="ccccccsccccccccccscccccccc" /><path
       style="fill-opacity:0.33;fill-rule:evenodd;stroke-width:0.999999"
       d="m 4.0302775,10 -0.029614,1 v 9 H 21.998846 l 3.999596,-4 h 33.996566 v -4 c 0,-0.003 -0.002,0.004 -0.002,0 h 0.002 C 59.988808,10.988725 58.990992,9.9943186 57.99521,10 H 31.997836 L 27.99824,6 H 8.0002595 C 5.9928069,6.00259 3.994256,8.0072001 4.0302775,10 Z"
       id="path2-6"
       sodipodi:nodetypes="ccccccsccccccc" /><path
       style="fill:#ffffff;fill-opacity:0.2;fill-rule:evenodd;stroke-width:0.999999"
       d="m 27.99824,6 2.999697,5 h 1.999798 24.997475 c 1.212814,-0.06389 2.005543,1.005906 1.999798,2 v -1 c 6e-4,-0.992592 -0.988601,-1.993446 -1.999798,-2 H 32.997735 31.997836 Z m -1.999798,10 -3.999596,4 H 3.0007645 v 1 H 22.998745 Z"
       id="path3-18"
       sodipodi:nodetypes="cccccccccccccccc" /><path
       style="color:#31363b;fill-opacity:0.2;fill-rule:evenodd;stroke-width:0.999999"
       d="m 25.998442,16 -5.999394,3 H 4.0006635 v 1 H 21.998846 Z M 3.0007645,56 c 0.00641,1.008598 0.9937008,2.001463 1.999798,2 v 0 H 58.995109 v 0 0 c 1.002828,0.0016 2.001139,-0.999662 1.999798,-2 z"
       class="ColorScheme-Text"
       id="path4-7"
       sodipodi:nodetypes="cccccccccccccc" /><path
       id="path12-2-9"
       class="ColorScheme-Background"
       d="m 27,27 v 2 2 1 9.775391 C 26.469126,41.298212 25.773294,41 25,41 c -1.661993,0 -3,1.338007 -3,3 0,1.661993 1.338007,3 3,3 1.661993,0 3,-1.338007 3,-3 V 32 h 13 v 6.775391 C 40.469126,38.298212 39.773294,38 39,38 c -1.661993,0 -3,1.338007 -3,3 0,1.661993 1.338007,3 3,3 1.661993,0 3,-1.338007 3,-3 V 27 Z m 1,2 h 13 v 2 H 28 Z"
       style="color:#eff0f1;fill:#e5e5e5;fill-opacity:1;stroke:none" /></g><g
     id="g5"
     transform="translate(173,104.00001)"><path
       style="fill:currentColor;fill-opacity:1;stroke:none;stroke-width:0.999999"
       d="m 4.0006635,10 v 1 9 0 c -0.5203637,0.02153 -1.0229638,0.505476 -0.999899,1 h 0.00195 c -4.69e-5,0.004 -0.00195,0.008 -0.00195,0.01172 V 56 c 0.00871,0.999392 0.9801138,2.005992 1.999798,2 v 0 H 58.995109 v 0 c 1.011732,0.02205 1.994216,-0.972534 1.999798,-2 V 21.011719 21 17 c 0.05936,-0.589244 -0.407896,-1.006383 -0.999899,-1 v -4 c 0,-0.003 -0.002,0.004 -0.002,0 h 0.002 v 0 c -0.0061,-1.000671 -0.953819,-1.995969 -1.999798,-2 H 31.997836 L 27.99824,6 H 8.0002595 C 5.9630216,5.99492 4.0363539,7.9703236 4.0006635,10 Z"
       class="ColorScheme-Highlight "
       id="path1-02"
       sodipodi:nodetypes="ccccccsccccccccccscccccccc" /><path
       style="fill-opacity:0.33;fill-rule:evenodd;stroke-width:0.999999"
       d="m 4.0302775,10 -0.029614,1 v 9 H 21.998846 l 3.999596,-4 h 33.996566 v -4 c 0,-0.003 -0.002,0.004 -0.002,0 h 0.002 C 59.988808,10.988725 58.990992,9.9943186 57.99521,10 H 31.997836 L 27.99824,6 H 8.0002595 C 5.9928069,6.00259 3.994256,8.0072001 4.0302775,10 Z"
       id="path2-3"
       sodipodi:nodetypes="ccccccsccccccc" /><path
       style="fill:#ffffff;fill-opacity:0.2;fill-rule:evenodd;stroke-width:0.999999"
       d="m 27.99824,6 2.999697,5 h 1.999798 24.997475 c 1.212814,-0.06389 2.005543,1.005906 1.999798,2 v -1 c 6e-4,-0.992592 -0.988601,-1.993446 -1.999798,-2 H 32.997735 31.997836 Z m -1.999798,10 -3.999596,4 H 3.0007645 v 1 H 22.998745 Z"
       id="path3-7"
       sodipodi:nodetypes="cccccccccccccccc" /><path
       style="color:#31363b;fill-opacity:0.2;fill-rule:evenodd;stroke-width:0.999999"
       d="m 25.998442,16 -5.999394,3 H 4.0006635 v 1 H 21.998846 Z M 3.0007645,56 c 0.00641,1.008598 0.9937008,2.001463 1.999798,2 v 0 H 58.995109 v 0 0 c 1.002828,0.0016 2.001139,-0.999662 1.999798,-2 z"
       class="ColorScheme-Text"
       id="path4-5"
       sodipodi:nodetypes="cccccccccccccc" /><path
       id="path12-2-92"
       class="ColorScheme-Background"
       d="M 22,27 V 47 H 42 V 27 Z m 1,1 h 2 v 2 h -2 z m 16,0 h 2 v 2 h -2 z m -13,1 h 12 v 7 H 26 Z m -3,3 h 2 v 2 h -2 z m 16,0 h 2 v 2 h -2 z m -16,4 h 2 v 2 h -2 z m 16,0 h 2 v 2 h -2 z m -13,2 h 12 v 7 H 26 Z m -3,2 h 2 v 2 h -2 z m 16,0 h 2 v 2 h -2 z m -16,4 h 2 v 2 h -2 z m 16,0 h 2 v 2 h -2 z"
       style="color:#eff0f1;fill:#e5e5e5;fill-opacity:1;stroke:none" /></g><g
     inkscape:label="Capa 1"
     id="layer1"
     transform="translate(-366.57143,-310.798)"><path
       style="color:#3daee9;fill:#ffd42a;fill-opacity:1;stroke:none"
       d="m 388.57219,493.79801 v 1 9 0 c -0.52042,0.0215 -1.02307,0.50548 -1,1 h 0.002 c -5e-5,0.004 -0.002,0.008 -0.002,0.0117 v 34.98828 c 0.009,0.99939 0.98021,2.00599 2,2 v 0 h 54 v 0 c 1.01183,0.0221 1.99442,-0.97253 2,-2 v -34.98828 -0.0117 -4 c 0.0594,-0.58924 -0.40794,-1.00638 -1,-1 v -4 c 0,-0.003 -0.002,0.004 -0.002,0 h 0.002 v 0 c -0.006,-1.00067 -0.95392,-1.99597 -2,-2 h -26 l -4,-4 h -20 c -2.03744,-0.005 -3.96431,1.97032 -4,4 z"
       class="ColorScheme-Highlight"
       id="path1-28"
       sodipodi:nodetypes="ccccccsccccccccccscccccccc" /><path
       style="fill-opacity:0.33;fill-rule:evenodd"
       d="m 388.60181,493.79801 -0.0296,1 v 9 h 18 l 4,-4 h 34 v -4 c 0,-0.003 -0.002,0.004 -0.002,0 h 0.002 c -0.006,-1.01128 -1.00412,-2.00568 -2,-2 h -26 l -4,-4 h -20 c -2.00766,0.003 -4.00641,2.0072 -3.97038,4 z"
       id="path2-97"
       sodipodi:nodetypes="ccccccsccccccc" /><path
       style="fill:#ffffff;fill-opacity:0.2;fill-rule:evenodd"
       d="m 412.57219,489.79801 3,5 h 2 25 c 1.21294,-0.0639 2.00575,1.00591 2,2 v -1 c 6e-4,-0.99259 -0.9887,-1.99345 -2,-2 h -25 -1 z m -2,10 -4,4 h -19 v 1 h 20 z"
       id="path3-3"
       sodipodi:nodetypes="cccccccccccccccc" /><path
       style="color:#31363b;fill-opacity:0.2;fill-rule:evenodd"
       d="m 410.57219,499.79801 -6,3 h -16 v 1 h 18 z m -23,40 c 0.006,1.0086 0.9938,2.00146 2,2 v 0 h 54 v 0 0 c 1.00293,0.002 2.00134,-0.99966 2,-2 z"
       class="ColorScheme-Text"
       id="path4-6"
       sodipodi:nodetypes="cccccccccccccc" /></g><g
     id="g6"
     transform="translate(98,173.00001)"><path
       style="fill:currentColor;fill-opacity:1;stroke:none;stroke-width:0.999999"
       d="m 4.0006635,10 v 1 9 0 c -0.5203637,0.02153 -1.0229638,0.505476 -0.999899,1 h 0.00195 c -4.69e-5,0.004 -0.00195,0.008 -0.00195,0.01172 V 56 c 0.00871,0.999392 0.9801138,2.005992 1.999798,2 v 0 H 58.995109 v 0 c 1.011732,0.02205 1.994216,-0.972534 1.999798,-2 V 21.011719 21 17 c 0.05936,-0.589244 -0.407896,-1.006383 -0.999899,-1 v -4 c 0,-0.003 -0.002,0.004 -0.002,0 h 0.002 v 0 c -0.0061,-1.000671 -0.953819,-1.995969 -1.999798,-2 H 31.997836 L 27.99824,6 H 8.0002595 C 5.9630216,5.99492 4.0363539,7.9703236 4.0006635,10 Z"
       class="ColorScheme-Highlight"
       id="path1-29"
       sodipodi:nodetypes="ccccccsccccccccccscccccccc" /><path
       style="fill-opacity:0.33;fill-rule:evenodd;stroke-width:0.999999"
       d="m 4.0302775,10 -0.029614,1 v 9 H 21.998846 l 3.999596,-4 h 33.996566 v -4 c 0,-0.003 -0.002,0.004 -0.002,0 h 0.002 C 59.988808,10.988725 58.990992,9.9943186 57.99521,10 H 31.997836 L 27.99824,6 H 8.0002595 C 5.9928069,6.00259 3.994256,8.0072001 4.0302775,10 Z"
       id="path2-31"
       sodipodi:nodetypes="ccccccsccccccc" /><path
       style="fill:#ffffff;fill-opacity:0.2;fill-rule:evenodd;stroke-width:0.999999"
       d="m 27.99824,6 2.999697,5 h 1.999798 24.997475 c 1.212814,-0.06389 2.005543,1.005906 1.999798,2 v -1 c 6e-4,-0.992592 -0.988601,-1.993446 -1.999798,-2 H 32.997735 31.997836 Z m -1.999798,10 -3.999596,4 H 3.0007645 v 1 H 22.998745 Z"
       id="path3-9"
       sodipodi:nodetypes="cccccccccccccccc" /><path
       style="fill-opacity:0.2;fill-rule:evenodd;stroke-width:0.999999"
       d="m 25.998442,16 -5.999394,3 H 4.0006635 v 1 H 21.998846 Z M 3.0007645,56 c 0.00641,1.008598 0.9937008,2.001463 1.999798,2 v 0 H 58.995109 v 0 0 c 1.002828,0.0016 2.001139,-0.999662 1.999798,-2 z"
       class="ColorScheme-Text"
       id="path4-4"
       sodipodi:nodetypes="cccccccccccccc" /></g><path
     sodipodi:nodetypes="ccccccccccccccccccccccccccccccccccc"
     id="path4153-7-8"
     d="m 127.7769,197.04373 v 2.2585 h -7.90474 l 0,1.12925 h 2.2585 v 19.19728 h 1.12925 16.93878 v -2.25846 -16.93882 h 2.25853 v -1.12925 h -7.90482 v -2.25849 z m 1.12925,1.12925 h 4.517 v 2.2585 h 1.12925 4.51703 v 18.06807 h -15.80952 v -18.06807 h 5.64624 z m -1.12925,6.77552 v 9.03404 h 1.12925 v -9.03404 z m 5.64625,0 v 9.03404 h 1.12925 v -9.03404 z"
     style="fill:#e5e5e5;fill-opacity:1;stroke:none;stroke-width:0.769228"
     inkscape:connector-curvature="0" /></svg>
